<svg width="69" height="69" viewBox="0 0 69 69" fill="none" xmlns="http://www.w3.org/2000/svg">
<circle cx="34.7593" cy="34.2345" r="33.7792" fill="#090909"/>
<path fill-rule="evenodd" clip-rule="evenodd" d="M34.7593 68.0136C53.415 68.0136 68.5384 52.8902 68.5384 34.2345C68.5384 15.5788 53.415 0.455322 34.7593 0.455322C16.1036 0.455322 0.980103 15.5788 0.980103 34.2345C0.980103 52.8902 16.1036 68.0136 34.7593 68.0136ZM47.9642 19.9258C47.0834 19.1255 43.2813 16.7366 35.3482 16.702C35.3482 16.702 25.9543 16.0848 21.3941 20.2153C18.8561 22.7212 18.0011 26.4477 17.9073 30.9953C17.9042 31.1464 17.9006 31.302 17.897 31.462C17.791 36.1131 17.6042 44.3071 25.646 46.5412C25.646 46.5412 25.6133 52.9907 25.6095 53.5576C25.6095 53.9539 25.6724 54.2251 25.8989 54.2811C26.0619 54.3208 26.306 54.2365 26.5136 54.0295C27.8437 52.6937 32.1018 47.5566 32.1018 47.5566C37.8152 47.9298 42.3609 46.8017 42.8497 46.6418C42.9648 46.6049 43.1305 46.5662 43.3367 46.5181C45.1957 46.0847 50.3421 44.8848 51.2918 37.2133C52.3821 28.4283 50.891 22.4318 47.9642 19.9258ZM33.8568 21.7423C33.8592 21.4037 34.1356 21.1311 34.4742 21.1334C37.5721 21.1551 40.1947 22.1871 42.3 24.2394C44.4254 26.3114 45.4729 29.1298 45.4994 32.6188C45.502 32.9574 45.2296 33.234 44.891 33.2366C44.5524 33.2391 44.2758 32.9667 44.2732 32.6281C44.2486 29.3918 43.2865 26.9136 41.444 25.1175C39.5814 23.3017 37.2693 22.3792 34.4657 22.3597C34.1271 22.3573 33.8545 22.0809 33.8568 21.7423ZM35.4604 23.7231C35.0324 23.6917 34.6601 24.0132 34.6288 24.4412C34.5975 24.8691 34.919 25.2415 35.347 25.2727C37.318 25.417 38.7704 26.0731 39.804 27.2012C40.845 28.3387 41.3605 29.7573 41.3224 31.517C41.3132 31.9459 41.6534 32.3012 42.0824 32.3106C42.5114 32.3198 42.8666 31.9796 42.8759 31.5506C42.9217 29.4346 42.2892 27.6153 40.9503 26.1521C39.5931 24.6707 37.736 23.8896 35.4604 23.7231ZM36.2415 26.7319C35.9033 26.7143 35.6149 26.9741 35.5973 27.3123C35.5796 27.6504 35.8395 27.9389 36.1776 27.9565C37.0791 28.0035 37.6794 28.2659 38.0687 28.6684C38.4608 29.0739 38.7199 29.7052 38.7669 30.6519C38.7836 30.9901 39.0714 31.2506 39.4096 31.2339C39.7478 31.2171 40.0083 30.9293 39.9916 30.5911C39.9354 29.4578 39.6145 28.5029 38.9501 27.816C38.2828 27.126 37.3499 26.7898 36.2415 26.7319ZM37.4608 37.2938C37.0594 37.7883 36.3138 37.7254 36.3138 37.7254C30.8647 36.3343 29.4063 30.8147 29.4063 30.8147C29.4063 30.8147 29.3408 30.0692 29.8378 29.6677L30.8225 28.8851C31.3107 28.5088 31.6221 27.5959 31.1251 26.7044C30.7439 26.0352 30.3294 25.3855 29.8832 24.7578C29.4496 24.1657 28.4399 22.9533 28.4361 22.9496C27.9491 22.3752 27.2331 22.2418 26.4782 22.635C26.4759 22.635 26.4727 22.636 26.4697 22.637C26.4669 22.6379 26.4643 22.6388 26.4624 22.6388C25.7115 23.0714 25.0344 23.6211 24.4566 24.2671C24.4547 24.271 24.4527 24.2729 24.4507 24.2748C24.4489 24.2765 24.4472 24.2782 24.4453 24.2815C23.9789 24.8444 23.7119 25.3962 23.6444 25.9368C23.6304 26.0166 23.6255 26.0976 23.6299 26.1784C23.6274 26.4172 23.6638 26.6548 23.7375 26.8818L23.7633 26.8995C23.9986 27.735 24.5875 29.1267 25.8672 31.447C26.5992 32.7891 27.4434 34.0669 28.3908 35.2666C28.8655 35.868 29.3742 36.4417 29.9146 36.9849L29.934 37.0044C29.9468 37.0173 29.9595 37.0302 29.9725 37.0427L30.0304 37.1006L30.0883 37.1585L30.1461 37.2164C30.6893 37.7568 31.263 38.2656 31.8644 38.7402C33.0643 39.6878 34.3423 40.532 35.6847 41.2638C38.0044 42.5435 39.3973 43.1324 40.2316 43.3677L40.2492 43.3935C40.4762 43.4675 40.7138 43.504 40.9526 43.5017C41.0335 43.5056 41.1145 43.5006 41.1942 43.4867C41.7357 43.4225 42.2871 43.1559 42.8483 42.687C42.8503 42.6859 42.8517 42.6848 42.8528 42.6837C42.8536 42.683 42.8543 42.6823 42.855 42.6816C42.8569 42.6796 42.8588 42.6776 42.8627 42.6756C43.5087 42.0977 44.0585 41.4207 44.4916 40.6699C44.4916 40.6681 44.4923 40.6654 44.4931 40.6627C44.4939 40.6597 44.4948 40.6564 44.4948 40.6541C44.888 39.8992 44.7547 39.1832 44.177 38.6956C44.1763 38.6956 44.1292 38.6568 44.0495 38.591C43.7221 38.3214 42.8449 37.5986 42.3688 37.2485C41.7418 36.8023 41.0927 36.3878 40.4241 36.0065C39.532 35.5095 38.621 35.821 38.2434 36.3092L37.4608 37.2938Z" fill="#F1FF39"/>
</svg>
