<svg width="69" height="68" viewBox="0 0 69 68" fill="none" xmlns="http://www.w3.org/2000/svg">
<circle cx="34.5391" cy="33.7792" r="33.7792" fill="#090909"/>
<path fill-rule="evenodd" clip-rule="evenodd" d="M34.5391 67.5583C53.1948 67.5583 68.3183 52.4348 68.3183 33.7792C68.3183 15.1235 53.1948 0 34.5391 0C15.8834 0 0.759949 15.1235 0.759949 33.7792C0.759949 52.4348 15.8834 67.5583 34.5391 67.5583ZM36.9278 15.5497C34.9801 15.604 32.9249 16.0729 31.4731 17.4522C30.2742 18.5612 29.6701 20.1753 29.5344 21.7888C29.493 22.9429 29.4989 24.1 29.5049 25.2566C29.5093 26.124 29.5137 26.9912 29.4982 27.8566C28.965 27.8605 28.4301 27.8594 27.8951 27.8583C27.1815 27.8568 26.4676 27.8553 25.7565 27.8656C25.7565 28.5563 25.7575 29.2479 25.7586 29.9401C25.7606 31.3265 25.7625 32.7155 25.7565 34.1048C26.4676 34.1151 27.1815 34.1136 27.8951 34.1122C28.4301 34.1111 28.965 34.11 29.4982 34.1138C29.5103 36.8669 29.508 39.6198 29.5058 42.3728C29.503 45.8139 29.5002 49.255 29.5253 52.696C30.9885 52.6857 32.4486 52.6872 33.9091 52.6887C35.0047 52.6898 36.1005 52.6909 37.1981 52.687C37.2072 49.5898 37.2049 46.4951 37.2027 43.4004C37.2004 40.3056 37.1981 37.2108 37.2072 34.1138C37.9452 34.11 38.6833 34.1111 39.4213 34.1122C40.4053 34.1136 41.3894 34.1151 42.3734 34.1048C42.68 32.031 42.9413 29.9389 43.0855 27.8385C42.1119 27.834 41.1381 27.834 40.1644 27.834C39.1907 27.834 38.217 27.834 37.2434 27.8295C37.2434 27.4665 37.2428 27.1035 37.2423 26.7406C37.2406 25.652 37.2389 24.5635 37.2525 23.4748C37.4057 22.636 38.271 21.9958 39.1097 22.0502H43.0946C43.1036 19.8773 43.1036 17.7135 43.0946 15.5406C42.5807 15.5406 42.0669 15.5401 41.5531 15.5396C40.0115 15.5379 38.4697 15.5362 36.9278 15.5497Z" fill="#F1FF39"/>
</svg>
