<svg width="68" height="69" viewBox="0 0 68 69" fill="none" xmlns="http://www.w3.org/2000/svg">
<circle cx="33.8603" cy="34.6964" r="33.7792" fill="#090909"/>
<path fill-rule="evenodd" clip-rule="evenodd" d="M33.8603 68.4756C52.516 68.4756 67.6395 53.3521 67.6395 34.6964C67.6395 16.0407 52.516 0.917236 33.8603 0.917236C15.2046 0.917236 0.0811768 16.0407 0.0811768 34.6964C0.0811768 53.3521 15.2046 68.4756 33.8603 68.4756ZM48.7078 22.4983C48.9681 19.5392 45.8434 20.7576 45.8434 20.7576C43.5361 21.7128 41.1566 22.6834 38.7514 23.6645C31.2937 26.7065 23.5889 29.8493 17.0255 32.9423C13.4667 34.2479 15.5499 35.5534 15.5499 35.5534L21.192 37.294C23.796 38.0773 25.1848 37.207 25.1848 37.207L37.3369 28.9388C41.6769 25.9797 40.6354 28.4166 39.5937 29.461L30.4796 38.1643C29.0908 39.3828 29.7852 40.4272 30.3928 40.9494C32.1148 42.4688 36.3509 45.2487 38.2003 46.4623C38.6816 46.7781 39.0012 46.9878 39.0729 47.0417C39.5069 47.3899 41.8505 48.9565 43.4129 48.6083C44.9754 48.2602 45.1489 46.2585 45.1489 46.2585L47.2322 32.5942C47.5446 30.222 47.903 27.9419 48.1893 26.1208C48.4596 24.4007 48.6656 23.0902 48.7078 22.4983Z" fill="#F1FF39"/>
</svg>
